<?xml version="1.0" encoding="UTF-8" standalone="no"?>
<!DOCTYPE svg PUBLIC "-//W3C//DTD SVG 1.1//EN" "http://www.w3.org/Graphics/SVG/1.1/DTD/svg11.dtd">
<svg width="100%" height="100%" viewBox="0 0 221 334" version="1.1" xmlns="http://www.w3.org/2000/svg" xmlns:xlink="http://www.w3.org/1999/xlink" xml:space="preserve" xmlns:serif="http://www.serif.com/" style="fill-rule:evenodd;clip-rule:evenodd;stroke-linejoin:round;stroke-miterlimit:2;">
    <g transform="matrix(1,0,0,1,-636.31625,-1056.94)">
        <g transform="matrix(4.166667,0,0,4.166667,0,0)">
            <g transform="matrix(1,0,0,1,203.6318,301.5386)">
                <path d="M0,-15.648C0,-17.019 -1.122,-18.141 -2.493,-18.141L-4.934,-18.141C-6.305,-18.141 -7.427,-17.019 -7.427,-15.648L-7.973,-9.538L-8.779,-19.492C-8.779,-20.863 -9.901,-21.985 -11.272,-21.985L-14.776,-21.985C-16.147,-21.985 -17.27,-20.863 -17.27,-19.492L-18.077,-9.538L-18.077,-23.252C-18.077,-24.623 -19.198,-25.745 -20.57,-25.745L-24.855,-25.745C-26.227,-25.745 -27.348,-24.623 -27.348,-23.252L-27.921,-9.538L-27.921,-44.445C-27.921,-45.816 -29.043,-46.938 -30.415,-46.938L-34.31,-46.938C-35.681,-46.938 -36.803,-45.816 -36.803,-44.445L-37.887,-2.27L-39.161,2.213L-39.62,-5.487C-39.776,-8.096 -40.555,-9.265 -42.153,-9.226L-45.27,-9.226C-47.646,-9.11 -49.204,-8.37 -49.49,-4.238L-49.981,12.46C-49.636,13.384 -48.927,15.762 -45.8,18.819L-39.119,26.389L-36.807,31.255L-5.4,31.29L-5.4,31.289L-4.361,31.29C-4.361,31.29 -1.536,22.604 -1.094,19.602C-0.666,16.689 0.693,11.733 1.013,7.373C1.336,6.953 0,-15.648 0,-15.648" style="fill:white;fill-rule:nonzero;"/>
            </g>
            <g transform="matrix(1,0,0,1,204.5669,301.5386)">
                <path d="M0,-15.648L0.009,-15.648L0,-15.648ZM-37.151,30.321L-5.978,30.354C-5.321,28.296 -3.311,21.888 -2.954,19.466C-2.798,18.404 -2.532,17.127 -2.224,15.65C-1.676,13.027 -1.057,10.053 -0.854,7.304L-0.663,6.802C-0.798,6.979 -0.823,7.146 -0.824,7.154C-0.67,6.053 -1.383,-7.382 -1.868,-15.592L-1.87,-15.648C-1.87,-16.506 -2.569,-17.206 -3.428,-17.206L-5.869,-17.206C-6.728,-17.206 -7.427,-16.506 -7.427,-15.648L-7.977,-9.455L-9.84,-9.462L-10.646,-19.416C-10.649,-20.35 -11.348,-21.049 -12.207,-21.049L-15.712,-21.049C-16.571,-21.049 -17.27,-20.35 -17.27,-19.491L-18.08,-9.462L-19.946,-9.539L-19.946,-23.252C-19.946,-24.11 -20.646,-24.809 -21.505,-24.809L-25.791,-24.809C-26.649,-24.809 -27.349,-24.11 -27.349,-23.252L-27.922,-9.5L-29.791,-9.539L-29.791,-44.445C-29.791,-45.303 -30.49,-46.002 -31.35,-46.002L-35.244,-46.002C-36.104,-46.002 -36.803,-45.303 -36.803,-44.445L-37.887,-2.247L-37.923,-2.015L-39.196,2.469L-41.029,2.269L-41.489,-5.431C-41.662,-8.325 -42.574,-8.304 -43.064,-8.292L-46.204,-8.291C-48.006,-8.202 -49.236,-7.867 -49.492,-4.173L-49.976,12.309L-49.958,12.355C-49.596,13.361 -48.839,15.455 -46.082,18.15L-39.21,25.987L-37.151,30.321ZM-5.297,32.225L-37.743,32.19L-38.586,31.657L-40.843,26.909L-47.436,19.438C-50.453,16.494 -51.339,14.039 -51.718,12.991L-51.792,12.788L-51.851,12.433L-51.359,-4.265C-51.035,-8.972 -49.083,-10.022 -46.25,-10.16L-43.087,-10.162C-40.303,-10.252 -39.789,-7.523 -39.66,-6.071L-38.672,-44.468C-38.672,-46.335 -37.135,-47.873 -35.244,-47.873L-31.35,-47.873C-29.459,-47.873 -27.921,-46.335 -27.921,-44.445L-27.921,-25.938C-27.336,-26.401 -26.595,-26.68 -25.791,-26.68L-21.505,-26.68C-19.614,-26.68 -18.077,-25.142 -18.077,-23.252L-18.077,-21.979C-17.461,-22.558 -16.628,-22.919 -15.712,-22.919L-12.207,-22.919C-10.317,-22.919 -8.779,-21.381 -8.779,-19.491L-8.633,-17.691C-8.009,-18.523 -7.002,-19.077 -5.869,-19.077L-3.428,-19.077C-1.548,-19.077 -0.016,-17.554 0,-15.677C1.046,2.019 1.122,6.265 0.981,7.439L1.011,7.441C0.8,10.314 0.166,13.352 -0.393,16.032C-0.695,17.48 -0.956,18.731 -1.104,19.739C-1.552,22.783 -4.291,31.221 -4.407,31.579L-5.297,32.225Z" style="fill-rule:nonzero;"/>
            </g>
        </g>
    </g>
</svg>
